<?xml version="1.0" encoding="UTF-8" standalone="no"?>
<!-- Generator: Adobe Illustrator 16.0.0, SVG Export Plug-In . SVG Version: 6.00 Build 0)  -->

<svg
   xmlns:dc="http://purl.org/dc/elements/1.1/"
   xmlns:cc="http://creativecommons.org/ns#"
   xmlns:rdf="http://www.w3.org/1999/02/22-rdf-syntax-ns#"
   xmlns:svg="http://www.w3.org/2000/svg"
   xmlns="http://www.w3.org/2000/svg"
   xmlns:sodipodi="http://sodipodi.sourceforge.net/DTD/sodipodi-0.dtd"
   xmlns:inkscape="http://www.inkscape.org/namespaces/inkscape"
   version="1.1"
   id="Camada_1"
   x="0px"
   y="0px"
   width="595.28px"
   height="419.53px"
   viewBox="0 0 595.28 419.53"
   enable-background="new 0 0 595.28 419.53"
   xml:space="preserve"
   inkscape:version="0.91 r13725"
   sodipodi:docname="eva_logo.svg"><metadata
     id="metadata3349"><rdf:RDF><cc:Work
         rdf:about=""><dc:format>image/svg+xml</dc:format><dc:type
           rdf:resource="http://purl.org/dc/dcmitype/StillImage" /></cc:Work></rdf:RDF></metadata><defs
     id="defs3347" /><sodipodi:namedview
     pagecolor="#ffffff"
     bordercolor="#666666"
     borderopacity="1"
     objecttolerance="10"
     gridtolerance="10"
     guidetolerance="10"
     inkscape:pageopacity="0"
     inkscape:pageshadow="2"
     inkscape:window-width="1366"
     inkscape:window-height="705"
     id="namedview3345"
     showgrid="false"
     inkscape:zoom="1.2776202"
     inkscape:cx="326.20876"
     inkscape:cy="209.765"
     inkscape:window-x="-8"
     inkscape:window-y="-8"
     inkscape:window-maximized="1"
     inkscape:current-layer="Camada_1" /><g
     id="g3337"
     transform="matrix(1.526755,0,0,2.0063363,-172.59473,-218.119)"><path
       d="m 162.227,153.781 11.279,0 c 17.039,0 31.557,7.679 43.556,23.038 6.798,11.519 10.199,21.399 10.199,29.637 l 0,0.48 c 0,5.04 -3.959,7.56 -11.879,7.56 -33.677,0.239 -50.515,1.121 -50.515,2.639 -0.32,0.721 -0.48,1.281 -0.48,1.68 2.799,5.04 5.838,7.56 9.119,7.56 0.879,0 5.879,-1.8 14.999,-5.399 l 3.84,0 c 18.238,2.24 27.357,5.801 27.357,10.679 l 0,0.601 c 0,5.12 -6.44,11.92 -19.318,20.397 -9.439,5.04 -19.318,7.56 -29.637,7.56 -25.838,0 -43.556,-12.358 -53.155,-37.076 -2.16,-6 -3.24,-12.119 -3.24,-18.358 0,-17.998 7.719,-32.316 23.158,-42.956 11.677,-5.361 19.917,-8.042 24.717,-8.042 z m 3.239,38.157 c 1.279,0.72 2.679,1.08 4.2,1.08 l 1.08,0 c 3.279,0 6.359,-0.36 9.239,-1.08 l 0,-1.08 c 0,-2.08 -3.44,-3.879 -10.319,-5.4 -2.801,1.122 -4.2,3.281 -4.2,6.48 z"
       id="path3339"
       inkscape:connector-curvature="0"
       style="fill:#f15a24" /><path
       d="m 239.643,155.341 5.279,0.6 25.797,0 c 8.16,0 13.718,3.041 16.679,9.119 5.679,14.719 9.639,22.078 11.879,22.078 l 0.479,0 c 1.519,-0.559 6.359,-9.159 14.519,-25.797 3.36,-2.56 7.479,-3.84 12.359,-3.84 l 1.08,0 c 26.557,0.72 39.836,3.24 39.836,7.559 l 0,1.08 c -5.52,15.439 -16.279,36.397 -32.277,62.874 -7.601,20.8 -18.159,31.197 -31.677,31.197 l -1.08,0 c -15.759,0 -25.278,-1.959 -28.557,-5.88 -2.72,-3.6 -13.999,-25.636 -33.836,-66.113 -8.96,-16.877 -13.439,-27.477 -13.439,-31.797 8.639,-0.318 12.959,-0.679 12.959,-1.08 z"
       id="path3341"
       inkscape:connector-curvature="0"
       style="fill:#f15a24" /><path
       d="m 414.25,152.102 c 1.359,0 11.398,1.8 30.117,5.399 l 3.239,0 c 14.318,-1.039 25.438,-1.56 33.356,-1.56 l 1.08,0 c 10.397,0 15.599,3.201 15.599,9.599 0.318,2.241 0.479,4.76 0.479,7.56 l 0,13.438 c 0,9.68 0.36,30.478 1.08,62.394 0,5.36 -3.239,8.04 -9.719,8.04 l -2.64,0 c -6.641,0 -20.599,-0.36 -41.876,-1.08 -16.159,2.88 -25.479,4.319 -27.957,4.319 l -3.24,0 c -20.319,0 -34.677,-10.397 -43.075,-31.197 -2.479,-7.037 -3.72,-13.838 -3.72,-20.398 l 0,-2.16 c 0,-12.719 4.998,-26.157 14.998,-40.316 12.559,-9.359 23.319,-14.038 32.279,-14.038 z m 1.079,54.834 0,2.16 c 0,7.121 5.56,11.44 16.679,12.959 7.358,0 11.679,-5.199 12.959,-15.599 l 0,-1.08 c 0,-6.639 -5.04,-11.318 -15.118,-14.039 l -0.48,0 c -7.842,0 -12.52,5.202 -14.04,15.599 z"
       id="path3343"
       inkscape:connector-curvature="0"
       style="fill:#f15a24" /></g></svg>